<mxfile host="Electron" agent="Mozilla/5.0 (Windows NT 10.0; Win64; x64) AppleWebKit/537.36 (KHTML, like Gecko) draw.io/26.0.4 Chrome/128.0.6613.186 Electron/32.2.5 Safari/537.36" version="26.0.4">
  <diagram id="C5RBs43oDa-KdzZeNtuy" name="Page-1">
    <mxGraphModel dx="2049" dy="2375" grid="0" gridSize="10" guides="1" tooltips="1" connect="1" arrows="1" fold="1" page="1" pageScale="1" pageWidth="827" pageHeight="1169" background="#ffffff" math="0" shadow="0">
      <root>
        <mxCell id="WIyWlLk6GJQsqaUBKTNV-0" />
        <mxCell id="WIyWlLk6GJQsqaUBKTNV-1" parent="WIyWlLk6GJQsqaUBKTNV-0" />
        <mxCell id="AWW5i605NGfqIYEL0coA-0" value="" style="group;labelBackgroundColor=none;fontColor=#1D3557;" parent="WIyWlLk6GJQsqaUBKTNV-1" vertex="1" connectable="0">
          <mxGeometry x="40" y="500" width="590" height="420" as="geometry" />
        </mxCell>
        <mxCell id="UP1UjLAqKdcAcom4Pu_H-65" value="Infrastruct" style="swimlane;whiteSpace=wrap;html=1;startSize=23;labelBackgroundColor=none;fillColor=#A8DADC;strokeColor=#457B9D;fontColor=#1D3557;" parent="AWW5i605NGfqIYEL0coA-0" vertex="1">
          <mxGeometry width="590" height="420" as="geometry" />
        </mxCell>
        <mxCell id="UP1UjLAqKdcAcom4Pu_H-45" value="AppDBContext" style="swimlane;fontStyle=1;align=center;verticalAlign=top;childLayout=stackLayout;horizontal=1;startSize=26;horizontalStack=0;resizeParent=1;resizeParentMax=0;resizeLast=0;collapsible=1;marginBottom=0;whiteSpace=wrap;html=1;labelBackgroundColor=none;fillColor=#A8DADC;strokeColor=#457B9D;fontColor=#1D3557;" parent="UP1UjLAqKdcAcom4Pu_H-65" vertex="1">
          <mxGeometry x="10" y="280" width="160" height="112" as="geometry" />
        </mxCell>
        <mxCell id="UP1UjLAqKdcAcom4Pu_H-46" value="DbSet&amp;lt;Product&amp;gt;" style="text;strokeColor=none;fillColor=none;align=left;verticalAlign=top;spacingLeft=4;spacingRight=4;overflow=hidden;rotatable=0;points=[[0,0.5],[1,0.5]];portConstraint=eastwest;whiteSpace=wrap;html=1;labelBackgroundColor=none;fontColor=#1D3557;" parent="UP1UjLAqKdcAcom4Pu_H-45" vertex="1">
          <mxGeometry y="26" width="160" height="26" as="geometry" />
        </mxCell>
        <mxCell id="zE7_3hG515mwKArk9efw-33" value="DbSet&amp;lt;Combos&amp;gt;" style="text;strokeColor=none;fillColor=none;align=left;verticalAlign=top;spacingLeft=4;spacingRight=4;overflow=hidden;rotatable=0;points=[[0,0.5],[1,0.5]];portConstraint=eastwest;whiteSpace=wrap;html=1;labelBackgroundColor=none;fontColor=#1D3557;" parent="UP1UjLAqKdcAcom4Pu_H-45" vertex="1">
          <mxGeometry y="52" width="160" height="26" as="geometry" />
        </mxCell>
        <mxCell id="UP1UjLAqKdcAcom4Pu_H-47" value="" style="line;strokeWidth=1;fillColor=none;align=left;verticalAlign=middle;spacingTop=-1;spacingLeft=3;spacingRight=3;rotatable=0;labelPosition=right;points=[];portConstraint=eastwest;strokeColor=#457B9D;labelBackgroundColor=none;fontColor=#1D3557;" parent="UP1UjLAqKdcAcom4Pu_H-45" vertex="1">
          <mxGeometry y="78" width="160" height="8" as="geometry" />
        </mxCell>
        <mxCell id="UP1UjLAqKdcAcom4Pu_H-48" value="OnConfiguring(): void" style="text;strokeColor=none;fillColor=none;align=left;verticalAlign=top;spacingLeft=4;spacingRight=4;overflow=hidden;rotatable=0;points=[[0,0.5],[1,0.5]];portConstraint=eastwest;whiteSpace=wrap;html=1;labelBackgroundColor=none;fontColor=#1D3557;" parent="UP1UjLAqKdcAcom4Pu_H-45" vertex="1">
          <mxGeometry y="86" width="160" height="26" as="geometry" />
        </mxCell>
        <mxCell id="UP1UjLAqKdcAcom4Pu_H-49" value="ProductRoutes" style="swimlane;fontStyle=1;align=center;verticalAlign=top;childLayout=stackLayout;horizontal=1;startSize=26;horizontalStack=0;resizeParent=1;resizeParentMax=0;resizeLast=0;collapsible=1;marginBottom=0;whiteSpace=wrap;html=1;container=0;labelBackgroundColor=none;fillColor=#A8DADC;strokeColor=#457B9D;fontColor=#1D3557;" parent="UP1UjLAqKdcAcom4Pu_H-65" vertex="1">
          <mxGeometry x="330" y="190" width="240" height="130" as="geometry" />
        </mxCell>
        <mxCell id="UP1UjLAqKdcAcom4Pu_H-52" value="Create(Product,Context): void" style="text;strokeColor=none;fillColor=none;align=left;verticalAlign=top;spacingLeft=4;spacingRight=4;overflow=hidden;rotatable=0;points=[[0,0.5],[1,0.5]];portConstraint=eastwest;whiteSpace=wrap;html=1;labelBackgroundColor=none;fontColor=#1D3557;" parent="UP1UjLAqKdcAcom4Pu_H-49" vertex="1">
          <mxGeometry y="26" width="240" height="26" as="geometry" />
        </mxCell>
        <mxCell id="UP1UjLAqKdcAcom4Pu_H-54" value="Update(Product,Context): void" style="text;strokeColor=none;fillColor=none;align=left;verticalAlign=top;spacingLeft=4;spacingRight=4;overflow=hidden;rotatable=0;points=[[0,0.5],[1,0.5]];portConstraint=eastwest;whiteSpace=wrap;html=1;labelBackgroundColor=none;fontColor=#1D3557;" parent="UP1UjLAqKdcAcom4Pu_H-49" vertex="1">
          <mxGeometry y="52" width="240" height="26" as="geometry" />
        </mxCell>
        <mxCell id="UP1UjLAqKdcAcom4Pu_H-53" value="Delete(Product,Context): void" style="text;strokeColor=none;fillColor=none;align=left;verticalAlign=top;spacingLeft=4;spacingRight=4;overflow=hidden;rotatable=0;points=[[0,0.5],[1,0.5]];portConstraint=eastwest;whiteSpace=wrap;html=1;labelBackgroundColor=none;fontColor=#1D3557;" parent="UP1UjLAqKdcAcom4Pu_H-49" vertex="1">
          <mxGeometry y="78" width="240" height="26" as="geometry" />
        </mxCell>
        <mxCell id="UP1UjLAqKdcAcom4Pu_H-55" value="Read(Product,Context): List&amp;lt;Product&amp;gt;" style="text;strokeColor=none;fillColor=none;align=left;verticalAlign=top;spacingLeft=4;spacingRight=4;overflow=hidden;rotatable=0;points=[[0,0.5],[1,0.5]];portConstraint=eastwest;whiteSpace=wrap;html=1;labelBackgroundColor=none;fontColor=#1D3557;" parent="UP1UjLAqKdcAcom4Pu_H-49" vertex="1">
          <mxGeometry y="104" width="240" height="26" as="geometry" />
        </mxCell>
        <mxCell id="UP1UjLAqKdcAcom4Pu_H-56" style="edgeStyle=orthogonalEdgeStyle;rounded=0;orthogonalLoop=1;jettySize=auto;html=1;exitX=0;exitY=0.5;exitDx=0;exitDy=0;entryX=1;entryY=0.25;entryDx=0;entryDy=0;labelBackgroundColor=none;strokeColor=#457B9D;fontColor=default;" parent="UP1UjLAqKdcAcom4Pu_H-65" source="UP1UjLAqKdcAcom4Pu_H-55" target="UP1UjLAqKdcAcom4Pu_H-45" edge="1">
          <mxGeometry relative="1" as="geometry" />
        </mxCell>
        <mxCell id="zE7_3hG515mwKArk9efw-55" value="ComboRoutes" style="swimlane;fontStyle=1;align=center;verticalAlign=top;childLayout=stackLayout;horizontal=1;startSize=26;horizontalStack=0;resizeParent=1;resizeParentMax=0;resizeLast=0;collapsible=1;marginBottom=0;whiteSpace=wrap;html=1;container=0;labelBackgroundColor=none;fillColor=#A8DADC;strokeColor=#457B9D;fontColor=#1D3557;" parent="UP1UjLAqKdcAcom4Pu_H-65" vertex="1">
          <mxGeometry x="210" y="40" width="220" height="130" as="geometry" />
        </mxCell>
        <mxCell id="zE7_3hG515mwKArk9efw-56" value="Create(Combo,Context): void" style="text;strokeColor=none;fillColor=none;align=left;verticalAlign=top;spacingLeft=4;spacingRight=4;overflow=hidden;rotatable=0;points=[[0,0.5],[1,0.5]];portConstraint=eastwest;whiteSpace=wrap;html=1;labelBackgroundColor=none;fontColor=#1D3557;" parent="zE7_3hG515mwKArk9efw-55" vertex="1">
          <mxGeometry y="26" width="220" height="26" as="geometry" />
        </mxCell>
        <mxCell id="zE7_3hG515mwKArk9efw-57" value="Update(Combo,Context): void" style="text;strokeColor=none;fillColor=none;align=left;verticalAlign=top;spacingLeft=4;spacingRight=4;overflow=hidden;rotatable=0;points=[[0,0.5],[1,0.5]];portConstraint=eastwest;whiteSpace=wrap;html=1;labelBackgroundColor=none;fontColor=#1D3557;" parent="zE7_3hG515mwKArk9efw-55" vertex="1">
          <mxGeometry y="52" width="220" height="26" as="geometry" />
        </mxCell>
        <mxCell id="zE7_3hG515mwKArk9efw-58" value="Delete(Combo,Context): void" style="text;strokeColor=none;fillColor=none;align=left;verticalAlign=top;spacingLeft=4;spacingRight=4;overflow=hidden;rotatable=0;points=[[0,0.5],[1,0.5]];portConstraint=eastwest;whiteSpace=wrap;html=1;labelBackgroundColor=none;fontColor=#1D3557;" parent="zE7_3hG515mwKArk9efw-55" vertex="1">
          <mxGeometry y="78" width="220" height="26" as="geometry" />
        </mxCell>
        <mxCell id="zE7_3hG515mwKArk9efw-59" value="Read(Combo,Context): List&amp;lt;Combo&amp;gt;" style="text;strokeColor=none;fillColor=none;align=left;verticalAlign=top;spacingLeft=4;spacingRight=4;overflow=hidden;rotatable=0;points=[[0,0.5],[1,0.5]];portConstraint=eastwest;whiteSpace=wrap;html=1;labelBackgroundColor=none;fontColor=#1D3557;" parent="zE7_3hG515mwKArk9efw-55" vertex="1">
          <mxGeometry y="104" width="220" height="26" as="geometry" />
        </mxCell>
        <mxCell id="zE7_3hG515mwKArk9efw-60" style="edgeStyle=orthogonalEdgeStyle;rounded=0;orthogonalLoop=1;jettySize=auto;html=1;exitX=0;exitY=0.5;exitDx=0;exitDy=0;entryX=0.75;entryY=0;entryDx=0;entryDy=0;strokeColor=#457B9D;fontColor=default;fillColor=#A8DADC;labelBackgroundColor=none;" parent="UP1UjLAqKdcAcom4Pu_H-65" source="zE7_3hG515mwKArk9efw-56" target="UP1UjLAqKdcAcom4Pu_H-45" edge="1">
          <mxGeometry relative="1" as="geometry" />
        </mxCell>
        <mxCell id="UP1UjLAqKdcAcom4Pu_H-39" value="Domain" style="swimlane;whiteSpace=wrap;html=1;labelBackgroundColor=none;fillColor=#A8DADC;strokeColor=#457B9D;fontColor=#1D3557;" parent="WIyWlLk6GJQsqaUBKTNV-1" vertex="1">
          <mxGeometry x="20" y="-310" width="580" height="735" as="geometry" />
        </mxCell>
        <mxCell id="UP1UjLAqKdcAcom4Pu_H-32" value="ProductServices" style="swimlane;fontStyle=1;align=center;verticalAlign=top;childLayout=stackLayout;horizontal=1;startSize=26;horizontalStack=0;resizeParent=1;resizeParentMax=0;resizeLast=0;collapsible=1;marginBottom=0;whiteSpace=wrap;html=1;labelBackgroundColor=none;fillColor=#A8DADC;strokeColor=#457B9D;fontColor=#1D3557;" parent="UP1UjLAqKdcAcom4Pu_H-39" vertex="1">
          <mxGeometry x="299" y="60" width="240" height="112" as="geometry" />
        </mxCell>
        <mxCell id="UP1UjLAqKdcAcom4Pu_H-34" value="" style="line;strokeWidth=1;fillColor=none;align=left;verticalAlign=middle;spacingTop=-1;spacingLeft=3;spacingRight=3;rotatable=0;labelPosition=right;points=[];portConstraint=eastwest;strokeColor=#457B9D;labelBackgroundColor=none;fontColor=#1D3557;" parent="UP1UjLAqKdcAcom4Pu_H-32" vertex="1">
          <mxGeometry y="26" width="240" height="8" as="geometry" />
        </mxCell>
        <mxCell id="zE7_3hG515mwKArk9efw-25" value="ProfitMargin(): double&amp;nbsp;" style="text;strokeColor=none;fillColor=none;align=left;verticalAlign=top;spacingLeft=4;spacingRight=4;overflow=hidden;rotatable=0;points=[[0,0.5],[1,0.5]];portConstraint=eastwest;whiteSpace=wrap;html=1;labelBackgroundColor=none;fontColor=#1D3557;" parent="UP1UjLAqKdcAcom4Pu_H-32" vertex="1">
          <mxGeometry y="34" width="240" height="26" as="geometry" />
        </mxCell>
        <mxCell id="zE7_3hG515mwKArk9efw-26" value="AddToCombo(): List&amp;lt;Products&amp;gt;" style="text;strokeColor=none;fillColor=none;align=left;verticalAlign=top;spacingLeft=4;spacingRight=4;overflow=hidden;rotatable=0;points=[[0,0.5],[1,0.5]];portConstraint=eastwest;whiteSpace=wrap;html=1;labelBackgroundColor=none;fontColor=#1D3557;" parent="UP1UjLAqKdcAcom4Pu_H-32" vertex="1">
          <mxGeometry y="60" width="240" height="26" as="geometry" />
        </mxCell>
        <mxCell id="UP1UjLAqKdcAcom4Pu_H-35" value="DeleteFromCombo(): List&amp;lt;Products&amp;gt;" style="text;strokeColor=none;fillColor=none;align=left;verticalAlign=top;spacingLeft=4;spacingRight=4;overflow=hidden;rotatable=0;points=[[0,0.5],[1,0.5]];portConstraint=eastwest;whiteSpace=wrap;html=1;labelBackgroundColor=none;fontColor=#1D3557;" parent="UP1UjLAqKdcAcom4Pu_H-32" vertex="1">
          <mxGeometry y="86" width="240" height="26" as="geometry" />
        </mxCell>
        <mxCell id="UP1UjLAqKdcAcom4Pu_H-14" value="Produto&lt;div&gt;&lt;br&gt;&lt;/div&gt;" style="swimlane;fontStyle=1;align=center;verticalAlign=top;childLayout=stackLayout;horizontal=1;startSize=26;horizontalStack=0;resizeParent=1;resizeParentMax=0;resizeLast=0;collapsible=1;marginBottom=0;whiteSpace=wrap;html=1;labelBackgroundColor=none;fillColor=#A8DADC;strokeColor=#457B9D;fontColor=#1D3557;" parent="UP1UjLAqKdcAcom4Pu_H-39" vertex="1">
          <mxGeometry x="10" y="40" width="180" height="294" as="geometry" />
        </mxCell>
        <mxCell id="UP1UjLAqKdcAcom4Pu_H-15" value="ID: Guid" style="text;strokeColor=none;fillColor=none;align=left;verticalAlign=top;spacingLeft=4;spacingRight=4;overflow=hidden;rotatable=0;points=[[0,0.5],[1,0.5]];portConstraint=eastwest;whiteSpace=wrap;html=1;labelBackgroundColor=none;fontColor=#1D3557;" parent="UP1UjLAqKdcAcom4Pu_H-14" vertex="1">
          <mxGeometry y="26" width="180" height="26" as="geometry" />
        </mxCell>
        <mxCell id="UP1UjLAqKdcAcom4Pu_H-18" value="Nome:string" style="text;strokeColor=none;fillColor=none;align=left;verticalAlign=top;spacingLeft=4;spacingRight=4;overflow=hidden;rotatable=0;points=[[0,0.5],[1,0.5]];portConstraint=eastwest;whiteSpace=wrap;html=1;labelBackgroundColor=none;fontColor=#1D3557;" parent="UP1UjLAqKdcAcom4Pu_H-14" vertex="1">
          <mxGeometry y="52" width="180" height="26" as="geometry" />
        </mxCell>
        <mxCell id="UP1UjLAqKdcAcom4Pu_H-19" value="Cod. Barras: string" style="text;strokeColor=none;fillColor=none;align=left;verticalAlign=top;spacingLeft=4;spacingRight=4;overflow=hidden;rotatable=0;points=[[0,0.5],[1,0.5]];portConstraint=eastwest;whiteSpace=wrap;html=1;labelBackgroundColor=none;fontColor=#1D3557;" parent="UP1UjLAqKdcAcom4Pu_H-14" vertex="1">
          <mxGeometry y="78" width="180" height="26" as="geometry" />
        </mxCell>
        <mxCell id="UP1UjLAqKdcAcom4Pu_H-20" value="Marca: string?" style="text;strokeColor=none;fillColor=none;align=left;verticalAlign=top;spacingLeft=4;spacingRight=4;overflow=hidden;rotatable=0;points=[[0,0.5],[1,0.5]];portConstraint=eastwest;whiteSpace=wrap;html=1;labelBackgroundColor=none;fontColor=#1D3557;" parent="UP1UjLAqKdcAcom4Pu_H-14" vertex="1">
          <mxGeometry y="104" width="180" height="26" as="geometry" />
        </mxCell>
        <mxCell id="UP1UjLAqKdcAcom4Pu_H-21" value="Preço de Custo: decimal" style="text;strokeColor=none;fillColor=none;align=left;verticalAlign=top;spacingLeft=4;spacingRight=4;overflow=hidden;rotatable=0;points=[[0,0.5],[1,0.5]];portConstraint=eastwest;whiteSpace=wrap;html=1;labelBackgroundColor=none;fontColor=#1D3557;" parent="UP1UjLAqKdcAcom4Pu_H-14" vertex="1">
          <mxGeometry y="130" width="180" height="26" as="geometry" />
        </mxCell>
        <mxCell id="UP1UjLAqKdcAcom4Pu_H-22" value="Preço de Venda: decimal" style="text;strokeColor=none;fillColor=none;align=left;verticalAlign=top;spacingLeft=4;spacingRight=4;overflow=hidden;rotatable=0;points=[[0,0.5],[1,0.5]];portConstraint=eastwest;whiteSpace=wrap;html=1;labelBackgroundColor=none;fontColor=#1D3557;" parent="UP1UjLAqKdcAcom4Pu_H-14" vertex="1">
          <mxGeometry y="156" width="180" height="26" as="geometry" />
        </mxCell>
        <mxCell id="UP1UjLAqKdcAcom4Pu_H-24" value="Fornecedor: string" style="text;strokeColor=none;fillColor=none;align=left;verticalAlign=top;spacingLeft=4;spacingRight=4;overflow=hidden;rotatable=0;points=[[0,0.5],[1,0.5]];portConstraint=eastwest;whiteSpace=wrap;html=1;labelBackgroundColor=none;fontColor=#1D3557;" parent="UP1UjLAqKdcAcom4Pu_H-14" vertex="1">
          <mxGeometry y="182" width="180" height="26" as="geometry" />
        </mxCell>
        <mxCell id="UP1UjLAqKdcAcom4Pu_H-23" value="NCM: string" style="text;strokeColor=none;fillColor=none;align=left;verticalAlign=top;spacingLeft=4;spacingRight=4;overflow=hidden;rotatable=0;points=[[0,0.5],[1,0.5]];portConstraint=eastwest;whiteSpace=wrap;html=1;labelBackgroundColor=none;fontColor=#1D3557;" parent="UP1UjLAqKdcAcom4Pu_H-14" vertex="1">
          <mxGeometry y="208" width="180" height="26" as="geometry" />
        </mxCell>
        <mxCell id="UP1UjLAqKdcAcom4Pu_H-26" value="Cfop: string" style="text;strokeColor=none;fillColor=none;align=left;verticalAlign=top;spacingLeft=4;spacingRight=4;overflow=hidden;rotatable=0;points=[[0,0.5],[1,0.5]];portConstraint=eastwest;whiteSpace=wrap;html=1;labelBackgroundColor=none;fontColor=#1D3557;" parent="UP1UjLAqKdcAcom4Pu_H-14" vertex="1">
          <mxGeometry y="234" width="180" height="26" as="geometry" />
        </mxCell>
        <mxCell id="zE7_3hG515mwKArk9efw-28" value="ComboCode: Combo?" style="text;strokeColor=none;fillColor=none;align=left;verticalAlign=top;spacingLeft=4;spacingRight=4;overflow=hidden;rotatable=0;points=[[0,0.5],[1,0.5]];portConstraint=eastwest;whiteSpace=wrap;html=1;labelBackgroundColor=none;fontColor=#1D3557;" parent="UP1UjLAqKdcAcom4Pu_H-14" vertex="1">
          <mxGeometry y="260" width="180" height="26" as="geometry" />
        </mxCell>
        <mxCell id="UP1UjLAqKdcAcom4Pu_H-16" value="" style="line;strokeWidth=1;fillColor=none;align=left;verticalAlign=middle;spacingTop=-1;spacingLeft=3;spacingRight=3;rotatable=0;labelPosition=right;points=[];portConstraint=eastwest;strokeColor=#457B9D;labelBackgroundColor=none;fontColor=#1D3557;" parent="UP1UjLAqKdcAcom4Pu_H-14" vertex="1">
          <mxGeometry y="286" width="180" height="8" as="geometry" />
        </mxCell>
        <mxCell id="UP1UjLAqKdcAcom4Pu_H-38" style="edgeStyle=orthogonalEdgeStyle;rounded=0;orthogonalLoop=1;jettySize=auto;html=1;exitX=0;exitY=0.5;exitDx=0;exitDy=0;entryX=1;entryY=0.5;entryDx=0;entryDy=0;labelBackgroundColor=none;strokeColor=#457B9D;fontColor=default;" parent="UP1UjLAqKdcAcom4Pu_H-39" source="UP1UjLAqKdcAcom4Pu_H-35" target="UP1UjLAqKdcAcom4Pu_H-21" edge="1">
          <mxGeometry relative="1" as="geometry" />
        </mxCell>
        <mxCell id="zE7_3hG515mwKArk9efw-12" value="Combo" style="swimlane;fontStyle=1;align=center;verticalAlign=top;childLayout=stackLayout;horizontal=1;startSize=26;horizontalStack=0;resizeParent=1;resizeParentMax=0;resizeLast=0;collapsible=1;marginBottom=0;whiteSpace=wrap;html=1;labelBackgroundColor=none;fillColor=#A8DADC;strokeColor=#457B9D;fontColor=#1D3557;" parent="UP1UjLAqKdcAcom4Pu_H-39" vertex="1">
          <mxGeometry x="10" y="387" width="180" height="164" as="geometry" />
        </mxCell>
        <mxCell id="zE7_3hG515mwKArk9efw-13" value="Id: Guid" style="text;strokeColor=none;fillColor=none;align=left;verticalAlign=top;spacingLeft=4;spacingRight=4;overflow=hidden;rotatable=0;points=[[0,0.5],[1,0.5]];portConstraint=eastwest;whiteSpace=wrap;html=1;labelBackgroundColor=none;fontColor=#1D3557;" parent="zE7_3hG515mwKArk9efw-12" vertex="1">
          <mxGeometry y="26" width="180" height="26" as="geometry" />
        </mxCell>
        <mxCell id="zE7_3hG515mwKArk9efw-20" value="Name: string" style="text;strokeColor=none;fillColor=none;align=left;verticalAlign=top;spacingLeft=4;spacingRight=4;overflow=hidden;rotatable=0;points=[[0,0.5],[1,0.5]];portConstraint=eastwest;whiteSpace=wrap;html=1;labelBackgroundColor=none;fontColor=#1D3557;" parent="zE7_3hG515mwKArk9efw-12" vertex="1">
          <mxGeometry y="52" width="180" height="26" as="geometry" />
        </mxCell>
        <mxCell id="zE7_3hG515mwKArk9efw-23" value="Code: string" style="text;strokeColor=none;fillColor=none;align=left;verticalAlign=top;spacingLeft=4;spacingRight=4;overflow=hidden;rotatable=0;points=[[0,0.5],[1,0.5]];portConstraint=eastwest;whiteSpace=wrap;html=1;labelBackgroundColor=none;fontColor=#1D3557;" parent="zE7_3hG515mwKArk9efw-12" vertex="1">
          <mxGeometry y="78" width="180" height="26" as="geometry" />
        </mxCell>
        <mxCell id="zE7_3hG515mwKArk9efw-21" value="Discount: decimal" style="text;strokeColor=none;fillColor=none;align=left;verticalAlign=top;spacingLeft=4;spacingRight=4;overflow=hidden;rotatable=0;points=[[0,0.5],[1,0.5]];portConstraint=eastwest;whiteSpace=wrap;html=1;labelBackgroundColor=none;fontColor=#1D3557;" parent="zE7_3hG515mwKArk9efw-12" vertex="1">
          <mxGeometry y="104" width="180" height="26" as="geometry" />
        </mxCell>
        <mxCell id="zE7_3hG515mwKArk9efw-22" value="ProductList: List&amp;lt;Products&amp;gt;?" style="text;strokeColor=none;fillColor=none;align=left;verticalAlign=top;spacingLeft=4;spacingRight=4;overflow=hidden;rotatable=0;points=[[0,0.5],[1,0.5]];portConstraint=eastwest;whiteSpace=wrap;html=1;labelBackgroundColor=none;fontColor=#1D3557;" parent="zE7_3hG515mwKArk9efw-12" vertex="1">
          <mxGeometry y="130" width="180" height="26" as="geometry" />
        </mxCell>
        <mxCell id="zE7_3hG515mwKArk9efw-14" value="" style="line;strokeWidth=1;fillColor=none;align=left;verticalAlign=middle;spacingTop=-1;spacingLeft=3;spacingRight=3;rotatable=0;labelPosition=right;points=[];portConstraint=eastwest;strokeColor=#457B9D;labelBackgroundColor=none;fontColor=#1D3557;" parent="zE7_3hG515mwKArk9efw-12" vertex="1">
          <mxGeometry y="156" width="180" height="8" as="geometry" />
        </mxCell>
        <mxCell id="zE7_3hG515mwKArk9efw-38" style="edgeStyle=orthogonalEdgeStyle;rounded=0;orthogonalLoop=1;jettySize=auto;html=1;exitX=0;exitY=0.5;exitDx=0;exitDy=0;entryX=1;entryY=0.5;entryDx=0;entryDy=0;labelBackgroundColor=none;strokeColor=#457B9D;fontColor=default;" parent="UP1UjLAqKdcAcom4Pu_H-39" source="UP1UjLAqKdcAcom4Pu_H-35" target="zE7_3hG515mwKArk9efw-13" edge="1">
          <mxGeometry relative="1" as="geometry" />
        </mxCell>
        <mxCell id="UP1UjLAqKdcAcom4Pu_H-59" value="&lt;p style=&quot;margin:0px;margin-top:4px;text-align:center;&quot;&gt;&lt;i&gt;&amp;lt;&amp;lt;Interface&amp;gt;&amp;gt;&lt;/i&gt;&lt;br&gt;&lt;b&gt;IDBCRUD&lt;/b&gt;&lt;/p&gt;&lt;hr size=&quot;1&quot; style=&quot;border-style:solid;&quot;&gt;&lt;p style=&quot;margin:0px;margin-left:4px;&quot;&gt;&lt;/p&gt;&lt;p style=&quot;margin:0px;margin-left:4px;&quot;&gt;Create(): void&lt;/p&gt;&lt;p style=&quot;margin:0px;margin-left:4px;&quot;&gt;Read(): List&amp;lt;&amp;gt;&lt;/p&gt;&lt;p style=&quot;margin:0px;margin-left:4px;&quot;&gt;Update(): Void&lt;/p&gt;&lt;p style=&quot;margin:0px;margin-left:4px;&quot;&gt;Delete(): void&lt;/p&gt;&lt;p style=&quot;margin:0px;margin-left:4px;&quot;&gt;&lt;br&gt;&lt;/p&gt;&lt;p style=&quot;margin:0px;margin-left:4px;&quot;&gt;&lt;br&gt;&lt;br&gt;&lt;/p&gt;" style="verticalAlign=top;align=left;overflow=fill;html=1;whiteSpace=wrap;labelBackgroundColor=none;fillColor=#A8DADC;strokeColor=#457B9D;fontColor=#1D3557;" parent="UP1UjLAqKdcAcom4Pu_H-39" vertex="1">
          <mxGeometry x="349" y="560" width="190" height="110" as="geometry" />
        </mxCell>
        <mxCell id="zE7_3hG515mwKArk9efw-37" style="edgeStyle=orthogonalEdgeStyle;rounded=0;orthogonalLoop=1;jettySize=auto;html=1;exitX=0.5;exitY=0;exitDx=0;exitDy=0;entryX=1;entryY=0.5;entryDx=0;entryDy=0;labelBackgroundColor=none;strokeColor=#457B9D;fontColor=default;" parent="UP1UjLAqKdcAcom4Pu_H-39" source="UP1UjLAqKdcAcom4Pu_H-59" target="zE7_3hG515mwKArk9efw-13" edge="1">
          <mxGeometry relative="1" as="geometry" />
        </mxCell>
        <mxCell id="zE7_3hG515mwKArk9efw-54" value="" style="edgeStyle=orthogonalEdgeStyle;rounded=0;orthogonalLoop=1;jettySize=auto;html=1;entryX=1;entryY=0.5;entryDx=0;entryDy=0;labelBackgroundColor=none;strokeColor=#457B9D;fontColor=default;" parent="UP1UjLAqKdcAcom4Pu_H-39" source="UP1UjLAqKdcAcom4Pu_H-59" target="zE7_3hG515mwKArk9efw-12" edge="1">
          <mxGeometry relative="1" as="geometry">
            <mxPoint x="1402" y="170" as="sourcePoint" />
            <mxPoint x="1690" y="75" as="targetPoint" />
            <Array as="points" />
          </mxGeometry>
        </mxCell>
        <mxCell id="zE7_3hG515mwKArk9efw-92" style="edgeStyle=orthogonalEdgeStyle;rounded=0;orthogonalLoop=1;jettySize=auto;html=1;exitX=1;exitY=0.5;exitDx=0;exitDy=0;entryX=1;entryY=0.5;entryDx=0;entryDy=0;strokeColor=#457B9D;fontColor=default;fillColor=#A8DADC;labelBackgroundColor=none;" parent="UP1UjLAqKdcAcom4Pu_H-39" source="zE7_3hG515mwKArk9efw-28" target="zE7_3hG515mwKArk9efw-13" edge="1">
          <mxGeometry relative="1" as="geometry" />
        </mxCell>
        <mxCell id="UP1UjLAqKdcAcom4Pu_H-81" value="Application" style="swimlane;whiteSpace=wrap;html=1;labelBackgroundColor=none;fillColor=#A8DADC;strokeColor=#457B9D;fontColor=#1D3557;movable=1;resizable=1;rotatable=1;deletable=1;editable=1;locked=0;connectable=1;" parent="WIyWlLk6GJQsqaUBKTNV-1" vertex="1">
          <mxGeometry x="679" y="-310" width="1299" height="1010" as="geometry" />
        </mxCell>
        <mxCell id="UP1UjLAqKdcAcom4Pu_H-82" value="ComboUIController" style="swimlane;fontStyle=1;align=center;verticalAlign=top;childLayout=stackLayout;horizontal=1;startSize=26;horizontalStack=0;resizeParent=1;resizeParentMax=0;resizeLast=0;collapsible=1;marginBottom=0;whiteSpace=wrap;html=1;labelBackgroundColor=none;fillColor=#A8DADC;strokeColor=#457B9D;fontColor=#1D3557;" parent="UP1UjLAqKdcAcom4Pu_H-81" vertex="1">
          <mxGeometry x="1088.0045454545455" y="541.9972727272727" width="153.81818181818184" height="113.27272727272725" as="geometry" />
        </mxCell>
        <mxCell id="UP1UjLAqKdcAcom4Pu_H-84" value="" style="line;strokeWidth=1;fillColor=none;align=left;verticalAlign=middle;spacingTop=-1;spacingLeft=3;spacingRight=3;rotatable=0;labelPosition=right;points=[];portConstraint=eastwest;strokeColor=#457B9D;labelBackgroundColor=none;fontColor=#1D3557;" parent="UP1UjLAqKdcAcom4Pu_H-82" vertex="1">
          <mxGeometry y="26" width="153.81818181818184" height="10.909090909090908" as="geometry" />
        </mxCell>
        <mxCell id="UP1UjLAqKdcAcom4Pu_H-85" value="CrudProcessing(): void" style="text;strokeColor=none;fillColor=none;align=left;verticalAlign=top;spacingLeft=4;spacingRight=4;overflow=hidden;rotatable=0;points=[[0,0.5],[1,0.5]];portConstraint=eastwest;whiteSpace=wrap;html=1;labelBackgroundColor=none;fontColor=#1D3557;" parent="UP1UjLAqKdcAcom4Pu_H-82" vertex="1">
          <mxGeometry y="36.90909090909091" width="153.81818181818184" height="76.36363636363635" as="geometry" />
        </mxCell>
        <mxCell id="AWW5i605NGfqIYEL0coA-3" value="&lt;div&gt;&amp;lt;&amp;lt;record&amp;gt;&amp;gt;&lt;/div&gt;ProductRequest" style="swimlane;fontStyle=1;align=center;verticalAlign=top;childLayout=stackLayout;horizontal=1;startSize=40;horizontalStack=0;resizeParent=1;resizeParentMax=0;resizeLast=0;collapsible=1;marginBottom=0;whiteSpace=wrap;html=1;labelBackgroundColor=none;fillColor=#A8DADC;strokeColor=#457B9D;fontColor=#1D3557;" parent="UP1UjLAqKdcAcom4Pu_H-81" vertex="1">
          <mxGeometry x="1096" y="46.002258064516134" width="153.405" height="369.9999999999999" as="geometry" />
        </mxCell>
        <mxCell id="AWW5i605NGfqIYEL0coA-9" value="ID: Guid" style="text;strokeColor=none;fillColor=none;align=left;verticalAlign=top;spacingLeft=4;spacingRight=4;overflow=hidden;rotatable=0;points=[[0,0.5],[1,0.5]];portConstraint=eastwest;whiteSpace=wrap;html=1;labelBackgroundColor=none;fontColor=#1D3557;" parent="AWW5i605NGfqIYEL0coA-3" vertex="1">
          <mxGeometry y="40" width="153.405" height="35.454545454545446" as="geometry" />
        </mxCell>
        <mxCell id="AWW5i605NGfqIYEL0coA-17" value="Cfop: string" style="text;strokeColor=none;fillColor=none;align=left;verticalAlign=top;spacingLeft=4;spacingRight=4;overflow=hidden;rotatable=0;points=[[0,0.5],[1,0.5]];portConstraint=eastwest;whiteSpace=wrap;html=1;labelBackgroundColor=none;fontColor=#1D3557;" parent="AWW5i605NGfqIYEL0coA-3" vertex="1">
          <mxGeometry y="75.45454545454544" width="153.405" height="35.454545454545446" as="geometry" />
        </mxCell>
        <mxCell id="AWW5i605NGfqIYEL0coA-16" value="NCM: string" style="text;strokeColor=none;fillColor=none;align=left;verticalAlign=top;spacingLeft=4;spacingRight=4;overflow=hidden;rotatable=0;points=[[0,0.5],[1,0.5]];portConstraint=eastwest;whiteSpace=wrap;html=1;labelBackgroundColor=none;fontColor=#1D3557;" parent="AWW5i605NGfqIYEL0coA-3" vertex="1">
          <mxGeometry y="110.90909090909088" width="153.405" height="35.454545454545446" as="geometry" />
        </mxCell>
        <mxCell id="AWW5i605NGfqIYEL0coA-15" value="Fornecedor: string" style="text;strokeColor=none;fillColor=none;align=left;verticalAlign=top;spacingLeft=4;spacingRight=4;overflow=hidden;rotatable=0;points=[[0,0.5],[1,0.5]];portConstraint=eastwest;whiteSpace=wrap;html=1;labelBackgroundColor=none;fontColor=#1D3557;" parent="AWW5i605NGfqIYEL0coA-3" vertex="1">
          <mxGeometry y="146.36363636363632" width="153.405" height="35.454545454545446" as="geometry" />
        </mxCell>
        <mxCell id="AWW5i605NGfqIYEL0coA-14" value="Preço de Venda: decimal" style="text;strokeColor=none;fillColor=none;align=left;verticalAlign=top;spacingLeft=4;spacingRight=4;overflow=hidden;rotatable=0;points=[[0,0.5],[1,0.5]];portConstraint=eastwest;whiteSpace=wrap;html=1;labelBackgroundColor=none;fontColor=#1D3557;" parent="AWW5i605NGfqIYEL0coA-3" vertex="1">
          <mxGeometry y="181.81818181818176" width="153.405" height="35.454545454545446" as="geometry" />
        </mxCell>
        <mxCell id="AWW5i605NGfqIYEL0coA-13" value="Preço de Custo: decimal" style="text;strokeColor=none;fillColor=none;align=left;verticalAlign=top;spacingLeft=4;spacingRight=4;overflow=hidden;rotatable=0;points=[[0,0.5],[1,0.5]];portConstraint=eastwest;whiteSpace=wrap;html=1;labelBackgroundColor=none;fontColor=#1D3557;" parent="AWW5i605NGfqIYEL0coA-3" vertex="1">
          <mxGeometry y="217.2727272727272" width="153.405" height="35.454545454545446" as="geometry" />
        </mxCell>
        <mxCell id="AWW5i605NGfqIYEL0coA-12" value="Marca: string?" style="text;strokeColor=none;fillColor=none;align=left;verticalAlign=top;spacingLeft=4;spacingRight=4;overflow=hidden;rotatable=0;points=[[0,0.5],[1,0.5]];portConstraint=eastwest;whiteSpace=wrap;html=1;labelBackgroundColor=none;fontColor=#1D3557;" parent="AWW5i605NGfqIYEL0coA-3" vertex="1">
          <mxGeometry y="252.72727272727263" width="153.405" height="35.454545454545446" as="geometry" />
        </mxCell>
        <mxCell id="AWW5i605NGfqIYEL0coA-11" value="Cod. Barras: string?" style="text;strokeColor=none;fillColor=none;align=left;verticalAlign=top;spacingLeft=4;spacingRight=4;overflow=hidden;rotatable=0;points=[[0,0.5],[1,0.5]];portConstraint=eastwest;whiteSpace=wrap;html=1;labelBackgroundColor=none;fontColor=#1D3557;" parent="AWW5i605NGfqIYEL0coA-3" vertex="1">
          <mxGeometry y="288.1818181818181" width="153.405" height="35.454545454545446" as="geometry" />
        </mxCell>
        <mxCell id="AWW5i605NGfqIYEL0coA-10" value="Nome:string" style="text;strokeColor=none;fillColor=none;align=left;verticalAlign=top;spacingLeft=4;spacingRight=4;overflow=hidden;rotatable=0;points=[[0,0.5],[1,0.5]];portConstraint=eastwest;whiteSpace=wrap;html=1;labelBackgroundColor=none;fontColor=#1D3557;" parent="AWW5i605NGfqIYEL0coA-3" vertex="1">
          <mxGeometry y="323.6363636363635" width="153.405" height="35.454545454545446" as="geometry" />
        </mxCell>
        <mxCell id="AWW5i605NGfqIYEL0coA-5" value="" style="line;strokeWidth=1;fillColor=none;align=left;verticalAlign=middle;spacingTop=-1;spacingLeft=3;spacingRight=3;rotatable=0;labelPosition=right;points=[];portConstraint=eastwest;strokeColor=#457B9D;labelBackgroundColor=none;fontColor=#1D3557;" parent="AWW5i605NGfqIYEL0coA-3" vertex="1">
          <mxGeometry y="359.09090909090895" width="153.405" height="10.909090909090907" as="geometry" />
        </mxCell>
        <mxCell id="AWW5i605NGfqIYEL0coA-8" value="" style="group;labelBackgroundColor=none;fontColor=#1D3557;movable=0;resizable=0;rotatable=0;deletable=0;editable=0;locked=1;connectable=0;" parent="UP1UjLAqKdcAcom4Pu_H-81" vertex="1" connectable="0">
          <mxGeometry x="150.99590909090912" y="592.9985043988269" width="192.27272727272728" height="188.18181818181816" as="geometry" />
        </mxCell>
        <mxCell id="UP1UjLAqKdcAcom4Pu_H-66" value="ProductCRUDAplication" style="swimlane;fontStyle=1;align=center;verticalAlign=top;childLayout=stackLayout;horizontal=1;startSize=26;horizontalStack=0;resizeParent=1;resizeParentMax=0;resizeLast=0;collapsible=1;marginBottom=0;whiteSpace=wrap;html=1;labelBackgroundColor=none;fillColor=#A8DADC;strokeColor=#457B9D;fontColor=#1D3557;" parent="AWW5i605NGfqIYEL0coA-8" vertex="1">
          <mxGeometry width="192.27272727272728" height="178.72727272727266" as="geometry" />
        </mxCell>
        <mxCell id="UP1UjLAqKdcAcom4Pu_H-68" value="" style="line;strokeWidth=1;fillColor=none;align=left;verticalAlign=middle;spacingTop=-1;spacingLeft=3;spacingRight=3;rotatable=0;labelPosition=right;points=[];portConstraint=eastwest;strokeColor=#457B9D;labelBackgroundColor=none;fontColor=#1D3557;" parent="UP1UjLAqKdcAcom4Pu_H-66" vertex="1">
          <mxGeometry y="26" width="192.27272727272728" height="10.909090909090907" as="geometry" />
        </mxCell>
        <mxCell id="UP1UjLAqKdcAcom4Pu_H-69" value="DeleteProduct(): void" style="text;strokeColor=none;fillColor=none;align=left;verticalAlign=top;spacingLeft=4;spacingRight=4;overflow=hidden;rotatable=0;points=[[0,0.5],[1,0.5]];portConstraint=eastwest;whiteSpace=wrap;html=1;labelBackgroundColor=none;fontColor=#1D3557;" parent="UP1UjLAqKdcAcom4Pu_H-66" vertex="1">
          <mxGeometry y="36.90909090909091" width="192.27272727272728" height="35.454545454545446" as="geometry" />
        </mxCell>
        <mxCell id="UP1UjLAqKdcAcom4Pu_H-71" value="UpdateProduct(): void" style="text;strokeColor=none;fillColor=none;align=left;verticalAlign=top;spacingLeft=4;spacingRight=4;overflow=hidden;rotatable=0;points=[[0,0.5],[1,0.5]];portConstraint=eastwest;whiteSpace=wrap;html=1;labelBackgroundColor=none;fontColor=#1D3557;" parent="UP1UjLAqKdcAcom4Pu_H-66" vertex="1">
          <mxGeometry y="72.36363636363635" width="192.27272727272728" height="35.454545454545446" as="geometry" />
        </mxCell>
        <mxCell id="UP1UjLAqKdcAcom4Pu_H-73" value="ReadProduct(): List&amp;lt;&amp;gt;" style="text;strokeColor=none;fillColor=none;align=left;verticalAlign=top;spacingLeft=4;spacingRight=4;overflow=hidden;rotatable=0;points=[[0,0.5],[1,0.5]];portConstraint=eastwest;whiteSpace=wrap;html=1;labelBackgroundColor=none;fontColor=#1D3557;" parent="UP1UjLAqKdcAcom4Pu_H-66" vertex="1">
          <mxGeometry y="107.81818181818178" width="192.27272727272728" height="35.454545454545446" as="geometry" />
        </mxCell>
        <mxCell id="UP1UjLAqKdcAcom4Pu_H-72" value="CreateProduct(): void" style="text;strokeColor=none;fillColor=none;align=left;verticalAlign=top;spacingLeft=4;spacingRight=4;overflow=hidden;rotatable=0;points=[[0,0.5],[1,0.5]];portConstraint=eastwest;whiteSpace=wrap;html=1;labelBackgroundColor=none;fontColor=#1D3557;" parent="UP1UjLAqKdcAcom4Pu_H-66" vertex="1">
          <mxGeometry y="143.27272727272722" width="192.27272727272728" height="35.454545454545446" as="geometry" />
        </mxCell>
        <mxCell id="uNEXI5GnNd0Jq8bG9tj8-21" style="edgeStyle=orthogonalEdgeStyle;rounded=0;orthogonalLoop=1;jettySize=auto;html=1;exitX=0.5;exitY=0;exitDx=0;exitDy=0;entryX=0;entryY=0.5;entryDx=0;entryDy=0;strokeColor=#457B9D;fontColor=default;fillColor=#A8DADC;labelBackgroundColor=none;" edge="1" parent="UP1UjLAqKdcAcom4Pu_H-81" source="zE7_3hG515mwKArk9efw-5" target="UP1UjLAqKdcAcom4Pu_H-72">
          <mxGeometry relative="1" as="geometry" />
        </mxCell>
        <mxCell id="zE7_3hG515mwKArk9efw-5" value="ProductValidation" style="swimlane;fontStyle=1;align=center;verticalAlign=top;childLayout=stackLayout;horizontal=1;startSize=26;horizontalStack=0;resizeParent=1;resizeParentMax=0;resizeLast=0;collapsible=1;marginBottom=0;whiteSpace=wrap;html=1;labelBackgroundColor=none;fillColor=#A8DADC;strokeColor=#457B9D;fontColor=#1D3557;" parent="UP1UjLAqKdcAcom4Pu_H-81" vertex="1">
          <mxGeometry x="93.27" y="822" width="250" height="86" as="geometry" />
        </mxCell>
        <mxCell id="zE7_3hG515mwKArk9efw-7" value="" style="line;strokeWidth=1;fillColor=none;align=left;verticalAlign=middle;spacingTop=-1;spacingLeft=3;spacingRight=3;rotatable=0;labelPosition=right;points=[];portConstraint=eastwest;strokeColor=#457B9D;labelBackgroundColor=none;fontColor=#1D3557;" parent="zE7_3hG515mwKArk9efw-5" vertex="1">
          <mxGeometry y="26" width="250" height="8" as="geometry" />
        </mxCell>
        <mxCell id="zE7_3hG515mwKArk9efw-10" value="ValidateProdcut(): void" style="text;strokeColor=none;fillColor=none;align=left;verticalAlign=top;spacingLeft=4;spacingRight=4;overflow=hidden;rotatable=0;points=[[0,0.5],[1,0.5]];portConstraint=eastwest;whiteSpace=wrap;html=1;labelBackgroundColor=none;fontColor=#1D3557;" parent="zE7_3hG515mwKArk9efw-5" vertex="1">
          <mxGeometry y="34" width="250" height="26" as="geometry" />
        </mxCell>
        <mxCell id="zE7_3hG515mwKArk9efw-8" value="ValidateProductUpdateDelete(): void" style="text;strokeColor=none;fillColor=none;align=left;verticalAlign=top;spacingLeft=4;spacingRight=4;overflow=hidden;rotatable=0;points=[[0,0.5],[1,0.5]];portConstraint=eastwest;whiteSpace=wrap;html=1;labelBackgroundColor=none;fontColor=#1D3557;" parent="zE7_3hG515mwKArk9efw-5" vertex="1">
          <mxGeometry y="60" width="250" height="26" as="geometry" />
        </mxCell>
        <mxCell id="zE7_3hG515mwKArk9efw-40" value="&amp;lt;&amp;lt;Interface&amp;gt;&amp;gt;&lt;br&gt;IServices" style="swimlane;fontStyle=1;align=center;verticalAlign=top;childLayout=stackLayout;horizontal=1;startSize=40;horizontalStack=0;resizeParent=1;resizeParentMax=0;resizeLast=0;collapsible=1;marginBottom=0;whiteSpace=wrap;html=1;labelBackgroundColor=none;fillColor=#A8DADC;strokeColor=#457B9D;fontColor=#1D3557;" parent="UP1UjLAqKdcAcom4Pu_H-81" vertex="1">
          <mxGeometry x="91" y="46" width="220" height="126" as="geometry" />
        </mxCell>
        <mxCell id="zE7_3hG515mwKArk9efw-42" value="" style="line;strokeWidth=1;fillColor=none;align=left;verticalAlign=middle;spacingTop=-1;spacingLeft=3;spacingRight=3;rotatable=0;labelPosition=right;points=[];portConstraint=eastwest;strokeColor=#457B9D;labelBackgroundColor=none;fontColor=#1D3557;" parent="zE7_3hG515mwKArk9efw-40" vertex="1">
          <mxGeometry y="40" width="220" height="8" as="geometry" />
        </mxCell>
        <mxCell id="zE7_3hG515mwKArk9efw-47" value="ProfitMargin() : double" style="text;strokeColor=none;fillColor=none;align=left;verticalAlign=top;spacingLeft=4;spacingRight=4;overflow=hidden;rotatable=0;points=[[0,0.5],[1,0.5]];portConstraint=eastwest;whiteSpace=wrap;html=1;labelBackgroundColor=none;fontColor=#1D3557;" parent="zE7_3hG515mwKArk9efw-40" vertex="1">
          <mxGeometry y="48" width="220" height="26" as="geometry" />
        </mxCell>
        <mxCell id="zE7_3hG515mwKArk9efw-46" value="AddToCombo(): List&amp;lt;Products&amp;gt;" style="text;strokeColor=none;fillColor=none;align=left;verticalAlign=top;spacingLeft=4;spacingRight=4;overflow=hidden;rotatable=0;points=[[0,0.5],[1,0.5]];portConstraint=eastwest;whiteSpace=wrap;html=1;labelBackgroundColor=none;fontColor=#1D3557;" parent="zE7_3hG515mwKArk9efw-40" vertex="1">
          <mxGeometry y="74" width="220" height="26" as="geometry" />
        </mxCell>
        <mxCell id="zE7_3hG515mwKArk9efw-43" value="DeleteFromCombo(): List&amp;lt;Products&amp;gt;" style="text;strokeColor=none;fillColor=none;align=left;verticalAlign=top;spacingLeft=4;spacingRight=4;overflow=hidden;rotatable=0;points=[[0,0.5],[1,0.5]];portConstraint=eastwest;whiteSpace=wrap;html=1;labelBackgroundColor=none;fontColor=#1D3557;" parent="zE7_3hG515mwKArk9efw-40" vertex="1">
          <mxGeometry y="100" width="220" height="26" as="geometry" />
        </mxCell>
        <mxCell id="zE7_3hG515mwKArk9efw-63" value="ComboCrudAplication" style="swimlane;fontStyle=1;align=center;verticalAlign=top;childLayout=stackLayout;horizontal=1;startSize=26;horizontalStack=0;resizeParent=1;resizeParentMax=0;resizeLast=0;collapsible=1;marginBottom=0;whiteSpace=wrap;html=1;strokeColor=#457B9D;fontColor=#1D3557;fillColor=#A8DADC;labelBackgroundColor=none;" parent="UP1UjLAqKdcAcom4Pu_H-81" vertex="1">
          <mxGeometry x="153.27" y="360" width="190" height="138" as="geometry" />
        </mxCell>
        <mxCell id="zE7_3hG515mwKArk9efw-65" value="" style="line;strokeWidth=1;fillColor=none;align=left;verticalAlign=middle;spacingTop=-1;spacingLeft=3;spacingRight=3;rotatable=0;labelPosition=right;points=[];portConstraint=eastwest;strokeColor=#457B9D;fontColor=#1D3557;labelBackgroundColor=none;" parent="zE7_3hG515mwKArk9efw-63" vertex="1">
          <mxGeometry y="26" width="190" height="8" as="geometry" />
        </mxCell>
        <mxCell id="zE7_3hG515mwKArk9efw-66" value="CreateCombo(): void" style="text;strokeColor=none;fillColor=none;align=left;verticalAlign=top;spacingLeft=4;spacingRight=4;overflow=hidden;rotatable=0;points=[[0,0.5],[1,0.5]];portConstraint=eastwest;whiteSpace=wrap;html=1;fontColor=#1D3557;labelBackgroundColor=none;" parent="zE7_3hG515mwKArk9efw-63" vertex="1">
          <mxGeometry y="34" width="190" height="26" as="geometry" />
        </mxCell>
        <mxCell id="zE7_3hG515mwKArk9efw-67" value="UpdateCombo():void" style="text;strokeColor=none;fillColor=none;align=left;verticalAlign=top;spacingLeft=4;spacingRight=4;overflow=hidden;rotatable=0;points=[[0,0.5],[1,0.5]];portConstraint=eastwest;whiteSpace=wrap;html=1;fontColor=#1D3557;labelBackgroundColor=none;" parent="zE7_3hG515mwKArk9efw-63" vertex="1">
          <mxGeometry y="60" width="190" height="26" as="geometry" />
        </mxCell>
        <mxCell id="zE7_3hG515mwKArk9efw-68" value="ReadCombo(): List&amp;lt;Combo&amp;gt;" style="text;strokeColor=none;fillColor=none;align=left;verticalAlign=top;spacingLeft=4;spacingRight=4;overflow=hidden;rotatable=0;points=[[0,0.5],[1,0.5]];portConstraint=eastwest;whiteSpace=wrap;html=1;fontColor=#1D3557;labelBackgroundColor=none;" parent="zE7_3hG515mwKArk9efw-63" vertex="1">
          <mxGeometry y="86" width="190" height="26" as="geometry" />
        </mxCell>
        <mxCell id="zE7_3hG515mwKArk9efw-69" value="DeleteCombo(): void" style="text;strokeColor=none;fillColor=none;align=left;verticalAlign=top;spacingLeft=4;spacingRight=4;overflow=hidden;rotatable=0;points=[[0,0.5],[1,0.5]];portConstraint=eastwest;whiteSpace=wrap;html=1;fontColor=#1D3557;labelBackgroundColor=none;" parent="zE7_3hG515mwKArk9efw-63" vertex="1">
          <mxGeometry y="112" width="190" height="26" as="geometry" />
        </mxCell>
        <mxCell id="zE7_3hG515mwKArk9efw-77" value="&amp;lt;&amp;lt;record&amp;gt;&amp;gt;&lt;div&gt;Combo&lt;/div&gt;" style="swimlane;fontStyle=1;align=center;verticalAlign=top;childLayout=stackLayout;horizontal=1;startSize=39;horizontalStack=0;resizeParent=1;resizeParentMax=0;resizeLast=0;collapsible=1;marginBottom=0;whiteSpace=wrap;html=1;labelBackgroundColor=none;fillColor=#A8DADC;strokeColor=#457B9D;fontColor=#1D3557;" parent="UP1UjLAqKdcAcom4Pu_H-81" vertex="1">
          <mxGeometry x="910" y="49" width="160" height="177" as="geometry" />
        </mxCell>
        <mxCell id="zE7_3hG515mwKArk9efw-78" value="Id: Guid" style="text;strokeColor=none;fillColor=none;align=left;verticalAlign=top;spacingLeft=4;spacingRight=4;overflow=hidden;rotatable=0;points=[[0,0.5],[1,0.5]];portConstraint=eastwest;whiteSpace=wrap;html=1;labelBackgroundColor=none;fontColor=#1D3557;" parent="zE7_3hG515mwKArk9efw-77" vertex="1">
          <mxGeometry y="39" width="160" height="26" as="geometry" />
        </mxCell>
        <mxCell id="zE7_3hG515mwKArk9efw-79" value="Name: string" style="text;strokeColor=none;fillColor=none;align=left;verticalAlign=top;spacingLeft=4;spacingRight=4;overflow=hidden;rotatable=0;points=[[0,0.5],[1,0.5]];portConstraint=eastwest;whiteSpace=wrap;html=1;labelBackgroundColor=none;fontColor=#1D3557;" parent="zE7_3hG515mwKArk9efw-77" vertex="1">
          <mxGeometry y="65" width="160" height="26" as="geometry" />
        </mxCell>
        <mxCell id="zE7_3hG515mwKArk9efw-80" value="Code: string" style="text;strokeColor=none;fillColor=none;align=left;verticalAlign=top;spacingLeft=4;spacingRight=4;overflow=hidden;rotatable=0;points=[[0,0.5],[1,0.5]];portConstraint=eastwest;whiteSpace=wrap;html=1;labelBackgroundColor=none;fontColor=#1D3557;" parent="zE7_3hG515mwKArk9efw-77" vertex="1">
          <mxGeometry y="91" width="160" height="26" as="geometry" />
        </mxCell>
        <mxCell id="zE7_3hG515mwKArk9efw-81" value="Discount: decimal" style="text;strokeColor=none;fillColor=none;align=left;verticalAlign=top;spacingLeft=4;spacingRight=4;overflow=hidden;rotatable=0;points=[[0,0.5],[1,0.5]];portConstraint=eastwest;whiteSpace=wrap;html=1;labelBackgroundColor=none;fontColor=#1D3557;" parent="zE7_3hG515mwKArk9efw-77" vertex="1">
          <mxGeometry y="117" width="160" height="26" as="geometry" />
        </mxCell>
        <mxCell id="zE7_3hG515mwKArk9efw-82" value="ProductList: List&amp;lt;Products&amp;gt;" style="text;strokeColor=none;fillColor=none;align=left;verticalAlign=top;spacingLeft=4;spacingRight=4;overflow=hidden;rotatable=0;points=[[0,0.5],[1,0.5]];portConstraint=eastwest;whiteSpace=wrap;html=1;labelBackgroundColor=none;fontColor=#1D3557;" parent="zE7_3hG515mwKArk9efw-77" vertex="1">
          <mxGeometry y="143" width="160" height="26" as="geometry" />
        </mxCell>
        <mxCell id="zE7_3hG515mwKArk9efw-83" value="" style="line;strokeWidth=1;fillColor=none;align=left;verticalAlign=middle;spacingTop=-1;spacingLeft=3;spacingRight=3;rotatable=0;labelPosition=right;points=[];portConstraint=eastwest;strokeColor=#457B9D;labelBackgroundColor=none;fontColor=#1D3557;" parent="zE7_3hG515mwKArk9efw-77" vertex="1">
          <mxGeometry y="169" width="160" height="8" as="geometry" />
        </mxCell>
        <mxCell id="uNEXI5GnNd0Jq8bG9tj8-29" style="edgeStyle=orthogonalEdgeStyle;rounded=0;orthogonalLoop=1;jettySize=auto;html=1;exitX=0;exitY=0.25;exitDx=0;exitDy=0;entryX=1;entryY=0.25;entryDx=0;entryDy=0;strokeColor=#457B9D;fontColor=default;fillColor=#A8DADC;labelBackgroundColor=none;" edge="1" parent="UP1UjLAqKdcAcom4Pu_H-81" source="uNEXI5GnNd0Jq8bG9tj8-0" target="uNEXI5GnNd0Jq8bG9tj8-6">
          <mxGeometry relative="1" as="geometry" />
        </mxCell>
        <mxCell id="uNEXI5GnNd0Jq8bG9tj8-0" value="ProductUIController" style="swimlane;fontStyle=1;align=center;verticalAlign=top;childLayout=stackLayout;horizontal=1;startSize=26;horizontalStack=0;resizeParent=1;resizeParentMax=0;resizeLast=0;collapsible=1;marginBottom=0;whiteSpace=wrap;html=1;labelBackgroundColor=none;fillColor=#A8DADC;strokeColor=#457B9D;fontColor=#1D3557;" vertex="1" parent="UP1UjLAqKdcAcom4Pu_H-81">
          <mxGeometry x="1107.0045454545455" y="735.9972727272727" width="153.81818181818184" height="113.27272727272725" as="geometry" />
        </mxCell>
        <mxCell id="uNEXI5GnNd0Jq8bG9tj8-1" value="" style="line;strokeWidth=1;fillColor=none;align=left;verticalAlign=middle;spacingTop=-1;spacingLeft=3;spacingRight=3;rotatable=0;labelPosition=right;points=[];portConstraint=eastwest;strokeColor=#457B9D;labelBackgroundColor=none;fontColor=#1D3557;" vertex="1" parent="uNEXI5GnNd0Jq8bG9tj8-0">
          <mxGeometry y="26" width="153.81818181818184" height="10.909090909090908" as="geometry" />
        </mxCell>
        <mxCell id="uNEXI5GnNd0Jq8bG9tj8-2" value="CrudProcessing(): void" style="text;strokeColor=none;fillColor=none;align=left;verticalAlign=top;spacingLeft=4;spacingRight=4;overflow=hidden;rotatable=0;points=[[0,0.5],[1,0.5]];portConstraint=eastwest;whiteSpace=wrap;html=1;labelBackgroundColor=none;fontColor=#1D3557;" vertex="1" parent="uNEXI5GnNd0Jq8bG9tj8-0">
          <mxGeometry y="36.90909090909091" width="153.81818181818184" height="76.36363636363635" as="geometry" />
        </mxCell>
        <mxCell id="uNEXI5GnNd0Jq8bG9tj8-6" value="ControllerTools" style="swimlane;fontStyle=1;align=center;verticalAlign=top;childLayout=stackLayout;horizontal=1;startSize=26;horizontalStack=0;resizeParent=1;resizeParentMax=0;resizeLast=0;collapsible=1;marginBottom=0;whiteSpace=wrap;html=1;labelBackgroundColor=none;fillColor=#A8DADC;strokeColor=#457B9D;fontColor=#1D3557;" vertex="1" parent="UP1UjLAqKdcAcom4Pu_H-81">
          <mxGeometry x="879" y="637" width="160" height="138" as="geometry" />
        </mxCell>
        <mxCell id="uNEXI5GnNd0Jq8bG9tj8-8" value="" style="line;strokeWidth=1;fillColor=none;align=left;verticalAlign=middle;spacingTop=-1;spacingLeft=3;spacingRight=3;rotatable=0;labelPosition=right;points=[];portConstraint=eastwest;strokeColor=#457B9D;labelBackgroundColor=none;fontColor=#1D3557;" vertex="1" parent="uNEXI5GnNd0Jq8bG9tj8-6">
          <mxGeometry y="26" width="160" height="8" as="geometry" />
        </mxCell>
        <mxCell id="uNEXI5GnNd0Jq8bG9tj8-13" value="RequestToEntity(): void" style="text;strokeColor=none;fillColor=none;align=left;verticalAlign=top;spacingLeft=4;spacingRight=4;overflow=hidden;rotatable=0;points=[[0,0.5],[1,0.5]];portConstraint=eastwest;whiteSpace=wrap;html=1;labelBackgroundColor=none;fontColor=#1D3557;" vertex="1" parent="uNEXI5GnNd0Jq8bG9tj8-6">
          <mxGeometry y="34" width="160" height="26" as="geometry" />
        </mxCell>
        <mxCell id="uNEXI5GnNd0Jq8bG9tj8-14" value="EntityToRequest(): void" style="text;strokeColor=none;fillColor=none;align=left;verticalAlign=top;spacingLeft=4;spacingRight=4;overflow=hidden;rotatable=0;points=[[0,0.5],[1,0.5]];portConstraint=eastwest;whiteSpace=wrap;html=1;labelBackgroundColor=none;fontColor=#1D3557;" vertex="1" parent="uNEXI5GnNd0Jq8bG9tj8-6">
          <mxGeometry y="60" width="160" height="26" as="geometry" />
        </mxCell>
        <mxCell id="uNEXI5GnNd0Jq8bG9tj8-12" value="RequestToEntityList(): void" style="text;strokeColor=none;fillColor=none;align=left;verticalAlign=top;spacingLeft=4;spacingRight=4;overflow=hidden;rotatable=0;points=[[0,0.5],[1,0.5]];portConstraint=eastwest;whiteSpace=wrap;html=1;labelBackgroundColor=none;fontColor=#1D3557;" vertex="1" parent="uNEXI5GnNd0Jq8bG9tj8-6">
          <mxGeometry y="86" width="160" height="26" as="geometry" />
        </mxCell>
        <mxCell id="uNEXI5GnNd0Jq8bG9tj8-9" value="EntityToRequestList(): void" style="text;strokeColor=none;fillColor=none;align=left;verticalAlign=top;spacingLeft=4;spacingRight=4;overflow=hidden;rotatable=0;points=[[0,0.5],[1,0.5]];portConstraint=eastwest;whiteSpace=wrap;html=1;labelBackgroundColor=none;fontColor=#1D3557;" vertex="1" parent="uNEXI5GnNd0Jq8bG9tj8-6">
          <mxGeometry y="112" width="160" height="26" as="geometry" />
        </mxCell>
        <mxCell id="uNEXI5GnNd0Jq8bG9tj8-18" value="Requests" style="shape=umlFrame;whiteSpace=wrap;html=1;pointerEvents=0;strokeColor=#457B9D;fontColor=#1D3557;fillColor=#A8DADC;movable=1;resizable=1;rotatable=1;deletable=1;editable=1;locked=0;connectable=1;labelBackgroundColor=none;" vertex="1" parent="UP1UjLAqKdcAcom4Pu_H-81">
          <mxGeometry x="822" y="37" width="441" height="393" as="geometry" />
        </mxCell>
        <mxCell id="uNEXI5GnNd0Jq8bG9tj8-34" value="" style="edgeStyle=orthogonalEdgeStyle;rounded=0;orthogonalLoop=1;jettySize=auto;html=1;strokeColor=#457B9D;fontColor=default;fillColor=#A8DADC;labelBackgroundColor=none;" edge="1" parent="UP1UjLAqKdcAcom4Pu_H-81" source="uNEXI5GnNd0Jq8bG9tj8-19" target="uNEXI5GnNd0Jq8bG9tj8-18">
          <mxGeometry relative="1" as="geometry" />
        </mxCell>
        <mxCell id="uNEXI5GnNd0Jq8bG9tj8-19" value="Controllers" style="shape=umlFrame;whiteSpace=wrap;html=1;pointerEvents=0;strokeColor=#457B9D;fontColor=#1D3557;fillColor=#A8DADC;labelBackgroundColor=none;width=106;height=32;gradientColor=none;container=1;" vertex="1" parent="UP1UjLAqKdcAcom4Pu_H-81">
          <mxGeometry x="876" y="501" width="401" height="410" as="geometry" />
        </mxCell>
        <mxCell id="uNEXI5GnNd0Jq8bG9tj8-22" value="ProductServiceManager" style="swimlane;fontStyle=1;align=center;verticalAlign=top;childLayout=stackLayout;horizontal=1;startSize=35;horizontalStack=0;resizeParent=1;resizeParentMax=0;resizeLast=0;collapsible=1;marginBottom=0;whiteSpace=wrap;html=1;strokeColor=#457B9D;fontColor=#1D3557;fillColor=#A8DADC;labelBackgroundColor=none;" vertex="1" parent="UP1UjLAqKdcAcom4Pu_H-81">
          <mxGeometry x="518" y="267" width="203" height="95" as="geometry" />
        </mxCell>
        <mxCell id="uNEXI5GnNd0Jq8bG9tj8-24" value="" style="line;strokeWidth=1;fillColor=none;align=left;verticalAlign=middle;spacingTop=-1;spacingLeft=3;spacingRight=3;rotatable=0;labelPosition=right;points=[];portConstraint=eastwest;strokeColor=#457B9D;fontColor=#1D3557;labelBackgroundColor=none;" vertex="1" parent="uNEXI5GnNd0Jq8bG9tj8-22">
          <mxGeometry y="35" width="203" height="8" as="geometry" />
        </mxCell>
        <mxCell id="uNEXI5GnNd0Jq8bG9tj8-25" value="AddProductToCombo(): void" style="text;strokeColor=none;fillColor=none;align=left;verticalAlign=top;spacingLeft=4;spacingRight=4;overflow=hidden;rotatable=0;points=[[0,0.5],[1,0.5]];portConstraint=eastwest;whiteSpace=wrap;html=1;fontColor=#1D3557;labelBackgroundColor=none;" vertex="1" parent="uNEXI5GnNd0Jq8bG9tj8-22">
          <mxGeometry y="43" width="203" height="26" as="geometry" />
        </mxCell>
        <mxCell id="uNEXI5GnNd0Jq8bG9tj8-26" value="RemoveProductFromCombo(): void" style="text;strokeColor=none;fillColor=none;align=left;verticalAlign=top;spacingLeft=4;spacingRight=4;overflow=hidden;rotatable=0;points=[[0,0.5],[1,0.5]];portConstraint=eastwest;whiteSpace=wrap;html=1;fontColor=#1D3557;labelBackgroundColor=none;" vertex="1" parent="uNEXI5GnNd0Jq8bG9tj8-22">
          <mxGeometry y="69" width="203" height="26" as="geometry" />
        </mxCell>
        <mxCell id="uNEXI5GnNd0Jq8bG9tj8-27" style="edgeStyle=orthogonalEdgeStyle;rounded=0;orthogonalLoop=1;jettySize=auto;html=1;exitX=0;exitY=0.5;exitDx=0;exitDy=0;entryX=0.986;entryY=0.186;entryDx=0;entryDy=0;entryPerimeter=0;strokeColor=#457B9D;fontColor=default;fillColor=#A8DADC;labelBackgroundColor=none;" edge="1" parent="UP1UjLAqKdcAcom4Pu_H-81" source="UP1UjLAqKdcAcom4Pu_H-85" target="uNEXI5GnNd0Jq8bG9tj8-6">
          <mxGeometry relative="1" as="geometry" />
        </mxCell>
        <mxCell id="uNEXI5GnNd0Jq8bG9tj8-30" style="edgeStyle=orthogonalEdgeStyle;rounded=0;orthogonalLoop=1;jettySize=auto;html=1;exitX=0;exitY=0.5;exitDx=0;exitDy=0;entryX=1;entryY=0.5;entryDx=0;entryDy=0;strokeColor=#457B9D;fontColor=default;fillColor=#A8DADC;labelBackgroundColor=none;" edge="1" parent="UP1UjLAqKdcAcom4Pu_H-81" source="uNEXI5GnNd0Jq8bG9tj8-25" target="zE7_3hG515mwKArk9efw-46">
          <mxGeometry relative="1" as="geometry" />
        </mxCell>
        <mxCell id="uNEXI5GnNd0Jq8bG9tj8-31" style="edgeStyle=orthogonalEdgeStyle;rounded=0;orthogonalLoop=1;jettySize=auto;html=1;exitX=0;exitY=0.5;exitDx=0;exitDy=0;entryX=1;entryY=0.25;entryDx=0;entryDy=0;strokeColor=#457B9D;fontColor=default;fillColor=#A8DADC;labelBackgroundColor=none;" edge="1" parent="UP1UjLAqKdcAcom4Pu_H-81" source="uNEXI5GnNd0Jq8bG9tj8-25" target="zE7_3hG515mwKArk9efw-63">
          <mxGeometry relative="1" as="geometry" />
        </mxCell>
        <mxCell id="uNEXI5GnNd0Jq8bG9tj8-32" style="edgeStyle=orthogonalEdgeStyle;rounded=0;orthogonalLoop=1;jettySize=auto;html=1;exitX=0;exitY=0.5;exitDx=0;exitDy=0;entryX=0.993;entryY=-0.098;entryDx=0;entryDy=0;entryPerimeter=0;strokeColor=#457B9D;fontColor=default;fillColor=#A8DADC;labelBackgroundColor=none;" edge="1" parent="UP1UjLAqKdcAcom4Pu_H-81" source="uNEXI5GnNd0Jq8bG9tj8-25" target="UP1UjLAqKdcAcom4Pu_H-69">
          <mxGeometry relative="1" as="geometry" />
        </mxCell>
        <mxCell id="uNEXI5GnNd0Jq8bG9tj8-35" style="edgeStyle=orthogonalEdgeStyle;rounded=0;orthogonalLoop=1;jettySize=auto;html=1;exitX=0;exitY=0.5;exitDx=0;exitDy=0;entryX=1;entryY=0.5;entryDx=0;entryDy=0;strokeColor=#457B9D;fontColor=default;fillColor=#A8DADC;labelBackgroundColor=none;" edge="1" parent="UP1UjLAqKdcAcom4Pu_H-81" source="UP1UjLAqKdcAcom4Pu_H-85" target="uNEXI5GnNd0Jq8bG9tj8-26">
          <mxGeometry relative="1" as="geometry">
            <Array as="points">
              <mxPoint x="803" y="617" />
              <mxPoint x="803" y="349" />
            </Array>
          </mxGeometry>
        </mxCell>
        <mxCell id="uNEXI5GnNd0Jq8bG9tj8-36" style="edgeStyle=orthogonalEdgeStyle;rounded=0;orthogonalLoop=1;jettySize=auto;html=1;exitX=0;exitY=0.5;exitDx=0;exitDy=0;entryX=1;entryY=0.5;entryDx=0;entryDy=0;strokeColor=#457B9D;fontColor=default;fillColor=#A8DADC;labelBackgroundColor=none;" edge="1" parent="UP1UjLAqKdcAcom4Pu_H-81" source="UP1UjLAqKdcAcom4Pu_H-85" target="zE7_3hG515mwKArk9efw-66">
          <mxGeometry relative="1" as="geometry" />
        </mxCell>
        <mxCell id="uNEXI5GnNd0Jq8bG9tj8-37" style="edgeStyle=orthogonalEdgeStyle;rounded=0;orthogonalLoop=1;jettySize=auto;html=1;exitX=0;exitY=0.5;exitDx=0;exitDy=0;strokeColor=#457B9D;fontColor=default;fillColor=#A8DADC;labelBackgroundColor=none;" edge="1" parent="UP1UjLAqKdcAcom4Pu_H-81" source="UP1UjLAqKdcAcom4Pu_H-85" target="UP1UjLAqKdcAcom4Pu_H-69">
          <mxGeometry relative="1" as="geometry" />
        </mxCell>
        <mxCell id="uNEXI5GnNd0Jq8bG9tj8-38" style="edgeStyle=orthogonalEdgeStyle;rounded=0;orthogonalLoop=1;jettySize=auto;html=1;exitX=0;exitY=0.5;exitDx=0;exitDy=0;entryX=1;entryY=0.5;entryDx=0;entryDy=0;strokeColor=#457B9D;fontColor=default;fillColor=#A8DADC;labelBackgroundColor=none;" edge="1" parent="UP1UjLAqKdcAcom4Pu_H-81" source="uNEXI5GnNd0Jq8bG9tj8-2" target="UP1UjLAqKdcAcom4Pu_H-69">
          <mxGeometry relative="1" as="geometry" />
        </mxCell>
        <mxCell id="UP1UjLAqKdcAcom4Pu_H-102" value="Presentation" style="swimlane;whiteSpace=wrap;html=1;labelBackgroundColor=none;fillColor=#A8DADC;strokeColor=#457B9D;fontColor=#1D3557;" parent="WIyWlLk6GJQsqaUBKTNV-1" vertex="1">
          <mxGeometry x="2143" y="-406" width="410" height="360" as="geometry" />
        </mxCell>
        <mxCell id="UP1UjLAqKdcAcom4Pu_H-99" value="&lt;p style=&quot;margin:0px;margin-top:4px;text-align:center;&quot;&gt;&lt;i&gt;&amp;lt;&amp;lt;Interface&amp;gt;&amp;gt;&lt;/i&gt;&lt;br&gt;&lt;b&gt;IProductController&lt;/b&gt;&lt;/p&gt;&lt;hr size=&quot;1&quot; style=&quot;border-style:solid;&quot;&gt;&lt;p style=&quot;margin:0px;margin-left:4px;&quot;&gt;+ field1: Type&lt;br&gt;+ field2: Type&lt;/p&gt;&lt;hr size=&quot;1&quot; style=&quot;border-style:solid;&quot;&gt;&lt;p style=&quot;margin:0px;margin-left:4px;&quot;&gt;+ method1(Type): Type&lt;br&gt;+ method2(Type, Type): Type&lt;/p&gt;" style="verticalAlign=top;align=left;overflow=fill;html=1;whiteSpace=wrap;labelBackgroundColor=none;fillColor=#A8DADC;strokeColor=#457B9D;fontColor=#1D3557;" parent="UP1UjLAqKdcAcom4Pu_H-102" vertex="1">
          <mxGeometry x="25" y="50" width="190" height="140" as="geometry" />
        </mxCell>
        <mxCell id="UP1UjLAqKdcAcom4Pu_H-91" value="UI" style="swimlane;fontStyle=1;align=center;verticalAlign=top;childLayout=stackLayout;horizontal=1;startSize=26;horizontalStack=0;resizeParent=1;resizeParentMax=0;resizeLast=0;collapsible=1;marginBottom=0;whiteSpace=wrap;html=1;labelBackgroundColor=none;fillColor=#A8DADC;strokeColor=#457B9D;fontColor=#1D3557;" parent="UP1UjLAqKdcAcom4Pu_H-102" vertex="1">
          <mxGeometry x="40" y="257" width="160" height="60" as="geometry" />
        </mxCell>
        <mxCell id="UP1UjLAqKdcAcom4Pu_H-93" value="" style="line;strokeWidth=1;fillColor=none;align=left;verticalAlign=middle;spacingTop=-1;spacingLeft=3;spacingRight=3;rotatable=0;labelPosition=right;points=[];portConstraint=eastwest;strokeColor=#457B9D;labelBackgroundColor=none;fontColor=#1D3557;" parent="UP1UjLAqKdcAcom4Pu_H-91" vertex="1">
          <mxGeometry y="26" width="160" height="8" as="geometry" />
        </mxCell>
        <mxCell id="UP1UjLAqKdcAcom4Pu_H-94" value="+ method(type): type" style="text;strokeColor=none;fillColor=none;align=left;verticalAlign=top;spacingLeft=4;spacingRight=4;overflow=hidden;rotatable=0;points=[[0,0.5],[1,0.5]];portConstraint=eastwest;whiteSpace=wrap;html=1;labelBackgroundColor=none;fontColor=#1D3557;" parent="UP1UjLAqKdcAcom4Pu_H-91" vertex="1">
          <mxGeometry y="34" width="160" height="26" as="geometry" />
        </mxCell>
        <mxCell id="UP1UjLAqKdcAcom4Pu_H-101" style="edgeStyle=orthogonalEdgeStyle;rounded=0;orthogonalLoop=1;jettySize=auto;html=1;exitX=0.5;exitY=0;exitDx=0;exitDy=0;entryX=0.5;entryY=1;entryDx=0;entryDy=0;labelBackgroundColor=none;strokeColor=#457B9D;fontColor=default;" parent="UP1UjLAqKdcAcom4Pu_H-102" source="UP1UjLAqKdcAcom4Pu_H-91" target="UP1UjLAqKdcAcom4Pu_H-99" edge="1">
          <mxGeometry relative="1" as="geometry" />
        </mxCell>
        <mxCell id="zE7_3hG515mwKArk9efw-36" style="edgeStyle=orthogonalEdgeStyle;rounded=0;orthogonalLoop=1;jettySize=auto;html=1;exitX=0.5;exitY=0;exitDx=0;exitDy=0;entryX=0.5;entryY=1;entryDx=0;entryDy=0;labelBackgroundColor=none;strokeColor=#457B9D;fontColor=default;" parent="WIyWlLk6GJQsqaUBKTNV-1" source="UP1UjLAqKdcAcom4Pu_H-45" target="zE7_3hG515mwKArk9efw-12" edge="1">
          <mxGeometry relative="1" as="geometry" />
        </mxCell>
        <mxCell id="zE7_3hG515mwKArk9efw-48" value="" style="endArrow=block;dashed=1;endFill=0;endSize=12;html=1;rounded=0;entryX=0;entryY=0.5;entryDx=0;entryDy=0;exitX=1;exitY=0.5;exitDx=0;exitDy=0;labelBackgroundColor=none;strokeColor=#457B9D;fontColor=default;" parent="WIyWlLk6GJQsqaUBKTNV-1" source="zE7_3hG515mwKArk9efw-25" target="zE7_3hG515mwKArk9efw-47" edge="1">
          <mxGeometry width="160" relative="1" as="geometry">
            <mxPoint x="720" y="-60" as="sourcePoint" />
            <mxPoint x="880" y="-60" as="targetPoint" />
            <Array as="points" />
          </mxGeometry>
        </mxCell>
        <mxCell id="UP1UjLAqKdcAcom4Pu_H-64" value="" style="endArrow=block;dashed=1;endFill=0;endSize=12;html=1;rounded=0;entryX=0.637;entryY=0.973;entryDx=0;entryDy=0;entryPerimeter=0;exitX=0.5;exitY=0;exitDx=0;exitDy=0;labelBackgroundColor=none;strokeColor=#457B9D;fontColor=default;" parent="WIyWlLk6GJQsqaUBKTNV-1" source="UP1UjLAqKdcAcom4Pu_H-49" target="UP1UjLAqKdcAcom4Pu_H-59" edge="1">
          <mxGeometry width="160" relative="1" as="geometry">
            <mxPoint x="430" y="520" as="sourcePoint" />
            <mxPoint x="426" y="390" as="targetPoint" />
            <Array as="points" />
          </mxGeometry>
        </mxCell>
        <mxCell id="UP1UjLAqKdcAcom4Pu_H-70" style="edgeStyle=orthogonalEdgeStyle;rounded=0;orthogonalLoop=1;jettySize=auto;html=1;exitX=0;exitY=0.131;exitDx=0;exitDy=0;entryX=1;entryY=0.5;entryDx=0;entryDy=0;exitPerimeter=0;labelBackgroundColor=none;strokeColor=#457B9D;fontColor=default;" parent="WIyWlLk6GJQsqaUBKTNV-1" source="UP1UjLAqKdcAcom4Pu_H-66" target="UP1UjLAqKdcAcom4Pu_H-59" edge="1">
          <mxGeometry relative="1" as="geometry">
            <mxPoint x="600" y="339" as="sourcePoint" />
          </mxGeometry>
        </mxCell>
        <mxCell id="zE7_3hG515mwKArk9efw-62" value="" style="endArrow=block;dashed=1;endFill=0;endSize=12;html=1;rounded=0;strokeColor=#457B9D;fontColor=default;fillColor=#A8DADC;exitX=0.75;exitY=0;exitDx=0;exitDy=0;entryX=0.25;entryY=1;entryDx=0;entryDy=0;labelBackgroundColor=none;" parent="WIyWlLk6GJQsqaUBKTNV-1" source="zE7_3hG515mwKArk9efw-55" target="UP1UjLAqKdcAcom4Pu_H-59" edge="1">
          <mxGeometry width="160" relative="1" as="geometry">
            <mxPoint x="520" y="480" as="sourcePoint" />
            <mxPoint x="680" y="480" as="targetPoint" />
          </mxGeometry>
        </mxCell>
        <mxCell id="zE7_3hG515mwKArk9efw-70" style="edgeStyle=orthogonalEdgeStyle;rounded=0;orthogonalLoop=1;jettySize=auto;html=1;exitX=0;exitY=0.5;exitDx=0;exitDy=0;entryX=1;entryY=0.5;entryDx=0;entryDy=0;strokeColor=#457B9D;fontColor=default;fillColor=#A8DADC;labelBackgroundColor=none;" parent="WIyWlLk6GJQsqaUBKTNV-1" source="zE7_3hG515mwKArk9efw-67" target="UP1UjLAqKdcAcom4Pu_H-59" edge="1">
          <mxGeometry relative="1" as="geometry" />
        </mxCell>
        <mxCell id="UP1UjLAqKdcAcom4Pu_H-57" style="edgeStyle=orthogonalEdgeStyle;rounded=0;orthogonalLoop=1;jettySize=auto;html=1;exitX=0.5;exitY=0;exitDx=0;exitDy=0;entryX=1;entryY=0.5;entryDx=0;entryDy=0;labelBackgroundColor=none;strokeColor=#457B9D;fontColor=default;" parent="WIyWlLk6GJQsqaUBKTNV-1" source="UP1UjLAqKdcAcom4Pu_H-45" target="zE7_3hG515mwKArk9efw-28" edge="1">
          <mxGeometry relative="1" as="geometry">
            <mxPoint x="210" y="85" as="targetPoint" />
          </mxGeometry>
        </mxCell>
      </root>
    </mxGraphModel>
  </diagram>
</mxfile>
